HIERARCHY
ROOT hip
{
	OFFSET 0.000000 0.000000 0.000000 
	CHANNELS 6 Xposition Yposition Zposition Xrotation Zrotation Yrotation
	JOINT abdomen
	{
		OFFSET 0.000000 3.402643 0.000000 
		CHANNELS 3 Xrotation Zrotation Yrotation
		JOINT chest
		{
			OFFSET 0.000000 8.438565 -0.680529 
			CHANNELS 3 Xrotation Zrotation Yrotation
			JOINT neck
			{
				OFFSET 0.000000 10.207942 -0.272212 
				CHANNELS 3 Xrotation Zrotation Yrotation
				JOINT head
				{
					OFFSET 0.000000 3.130431 0.000000 
					CHANNELS 3 Xrotation Zrotation Yrotation
					End Site
					{
						OFFSET 0.000000 3.130435 0.000000 
					}
				}
			}
			JOINT lCollar
			{
				OFFSET 3.470700 6.669187 -0.816635 
				CHANNELS 3 Yrotation Zrotation Xrotation
				JOINT lShldr
				{
					OFFSET 3.198488 0.000000 0.000000 
					CHANNELS 3 Zrotation Yrotation Xrotation
					JOINT lForeArm
					{
						OFFSET 10.139888 0.000000 0.000000 
						CHANNELS 3 Yrotation Zrotation Xrotation
						JOINT lHand
						{
							OFFSET 8.370511 0.000000 0.000000 
							CHANNELS 3 Zrotation Yrotation Xrotation
							End Site
							{
								OFFSET 4.083176 0.000000 0.000000 
							}
						}
					}
				}
			}
			JOINT rCollar
			{
				OFFSET -3.470700 6.669187 -0.816635 
				CHANNELS 3 Yrotation Zrotation Xrotation
				JOINT rShldr
				{
					OFFSET -3.198488 0.000000 0.000000 
					CHANNELS 3 Zrotation Yrotation Xrotation
					JOINT rForeArm
					{
						OFFSET -10.139888 0.000000 0.000000 
						CHANNELS 3 Yrotation Zrotation Xrotation
						JOINT rHand
						{
							OFFSET -8.370511 0.000000 0.000000 
							CHANNELS 3 Zrotation Yrotation Xrotation
							End Site
							{
								OFFSET -4.083176 0.000000 0.000000 
							}
						}
					}
				}
			}
		}
	}
	JOINT lThigh
	{
		OFFSET 5.308129 -1.633274 1.361059 
		CHANNELS 3 Xrotation Zrotation Yrotation
		JOINT lShin
		{
			OFFSET -2.041588 -20.007561 0.000000 
			CHANNELS 3 Xrotation Zrotation Yrotation
			JOINT lFoot
			{
				OFFSET 0.000000 -19.190928 -1.224953 
				CHANNELS 3 Xrotation Yrotation Zrotation
				End Site
				{
					OFFSET 0.000000 -2.449906 4.627600 
				}
			}
		}
	}
	JOINT rThigh
	{
		OFFSET -5.308129 -1.633274 1.361059 
		CHANNELS 3 Xrotation Zrotation Yrotation
		JOINT rShin
		{
			OFFSET 2.041588 -20.007561 0.000000 
			CHANNELS 3 Xrotation Zrotation Yrotation
			JOINT rFoot
			{
				OFFSET 0.000000 -19.190928 -1.224953 
				CHANNELS 3 Xrotation Yrotation Zrotation
				End Site
				{
					OFFSET 0.000000 -2.449906 4.627600 
				}
			}
		}
	}
}
MOTION
Frames: 6
Frame Time: 0.033333
0.533898 49.409569 -0.509695 0.058596 0.468750 -0.184988 0.000000 0.000000 0.000000 -3.232479 -0.341253 0.126695 5.498290 -0.158994 -0.013246 5.517574 0.097515 -0.044320 -0.389538 9.484450 -2.363935 -4.212479 1.521215 -14.487979 0.127085 -5.486460 19.706419 1.677519 -6.351079 -3.493809 0.735316 -9.343322 -2.344863 4.622438 -10.232080 -2.260442 0.048240 8.456598 9.734599 -0.424465 6.113439 -3.397477 6.802960 6.823435 5.903467 -2.439393 -2.935069 7.797503 -2.975811 0.091019 -3.675655 6.293665 -9.983453 -9.356137 -1.386494 3.494721 -12.567719 -1.829081 -0.105165 5.211840 
0.533774 49.416363 -0.507317 0.000000 0.439453 -0.136719 0.000000 0.000000 0.000000 -3.154363 -0.370532 0.098544 5.508002 -0.139793 -0.067594 5.566397 0.136527 -0.065837 -0.438052 9.515081 -2.292819 -4.289476 1.570271 -14.414214 0.126166 -5.494774 19.578810 1.536201 -6.291180 -3.485704 0.660436 -9.299464 -2.276663 4.640727 -10.085637 -2.221920 0.050051 8.518265 9.685579 -0.350046 6.020037 -3.392317 6.855070 6.855240 5.946249 -2.417118 -2.932637 7.717963 -2.966398 0.090065 -3.602113 6.382930 -9.946710 -9.343316 -1.393074 3.489997 -12.617021 -1.839655 -0.114458 5.166297 
0.534402 49.414097 -0.502158 0.019532 0.429687 -0.097437 0.000000 0.000000 0.000000 -3.154370 -0.390033 0.109385 5.449406 -0.232632 -0.098558 5.634675 0.448616 -0.199047 -0.555563 9.324354 -2.284846 -4.102655 1.679059 -14.307740 0.123417 -5.560849 19.316780 1.668515 -6.204868 -3.492736 0.665583 -9.211820 -2.278379 4.571569 -10.105514 -2.198977 0.056696 8.497841 9.851216 -0.340426 6.186921 -3.392148 6.814836 6.864990 5.938078 -2.419944 -2.925323 7.815421 -2.971590 0.082437 -3.552554 6.382071 -9.936043 -9.342085 -1.435290 3.513438 -12.571622 -1.841794 -0.078340 5.149162 
0.533396 49.414097 -0.486793 0.087893 0.400390 -0.184864 0.000000 0.000000 0.000000 -3.173905 -0.399776 0.149121 5.322688 -0.166809 -0.085818 5.751923 0.263345 -0.149836 -0.305089 9.304188 -2.317835 -4.133953 1.502114 -14.464298 0.111720 -5.551216 19.013184 1.769204 -5.924786 -3.498611 0.630988 -9.260067 -2.309300 4.712522 -9.987115 -2.410609 0.054684 8.444699 9.918476 -0.246422 6.094675 -3.386828 6.801011 6.890035 5.971478 -2.429075 -2.944312 7.797198 -2.983693 0.101300 -3.650442 6.315173 -9.928532 -9.319736 -1.463460 3.531761 -12.574139 -1.811513 -0.095808 5.089207 
0.540570 49.414097 -0.477518 0.156255 0.478514 -0.379473 0.000000 0.000000 0.000000 -3.232534 -0.477754 0.271122 5.293837 -0.217938 0.084835 5.722621 0.282845 -0.092359 -0.112803 9.178506 -2.372316 -4.057952 1.452646 -14.596649 0.110927 -5.515180 18.817240 1.706455 -5.703580 -3.493726 0.745422 -9.442466 -2.350835 4.890272 -9.966695 -2.458546 0.048722 8.476742 9.725238 -0.267181 6.113008 -3.388013 6.800758 6.811756 5.951685 -2.478602 -2.984099 7.958112 -2.971102 0.092466 -3.643361 6.190297 -10.038406 -9.350266 -1.326838 3.531734 -12.330212 -1.900359 -0.099261 5.257404 
0.569009 49.413849 -0.470067 0.292984 0.585930 -0.543779 0.000000 0.000000 0.000000 -3.339996 -0.545946 0.412719 5.216402 -0.274077 0.200004 5.898400 0.302397 -0.111944 0.055888 9.200315 -2.474060 -4.136158 1.383864 -14.619739 0.111956 -5.498393 18.924217 1.440980 -5.700147 -3.478087 0.821189 -9.458564 -2.452793 4.761065 -9.996792 -2.374067 0.045596 8.484519 9.910764 -0.202133 6.175566 -3.383858 6.685142 6.666592 5.825536 -2.461180 -2.985904 8.240688 -3.000338 0.077326 -3.491676 5.953570 -10.211268 -9.416053 -1.147724 3.556086 -12.113338 -1.984390 -0.102709 5.362527 
